<svg width="18" height="14" fill="none" xmlns="http://www.w3.org/2000/svg"><path d="m9.4821 5.473 1.1697.5446 1.7411-.5179V4.2854c0-2.0625-1.7411-3.7143-3.8215-3.7143C6.5.5711 4.75 2.2141 4.75 4.2587v5.5357a.9088.9088 0 0 1-.9107.9107.9088.9088 0 0 1-.9107-.9107V7.455H0V9.83c0 2.116 1.7143 3.8303 3.8304 3.8303 2.0982 0 3.8303-1.6875 3.8303-3.7767V4.4193c0-.5.4107-.9108.9107-.9108.5 0 .9107.4108.9107.9108v1.0535Zm4.7322 1.982v2.4554c0 .5-.4107.9018-.9107.9018-.5 0-.9107-.4018-.9107-.9018V7.4997l-1.7411.5179-1.1697-.5447v2.3929c0 2.0982 1.7233 3.7946 3.8304 3.7946 2.1161 0 3.8304-1.7143 3.8304-3.8303V7.455h-2.9286Z" fill="#fff"/></svg>