<svg width="14" height="17" fill="none" xmlns="http://www.w3.org/2000/svg"><path d="M12.5714 1.2587h.8572a.282.282 0 0 0 .2857-.2858V.4015a.282.282 0 0 0-.2857-.2857H.2857A.282.282 0 0 0 0 .4015V.973a.282.282 0 0 0 .2857.2858h.8572c0 3.3035 1.5803 5.6964 3.3303 6.857-1.75 1.1608-3.3303 3.5537-3.3303 6.8572H.2857A.282.282 0 0 0 0 15.2586v.5715a.282.282 0 0 0 .2857.2857h13.1429a.282.282 0 0 0 .2857-.2857v-.5715a.282.282 0 0 0-.2857-.2857h-.8572c0-3.3035-1.5803-5.6964-3.3303-6.8571 1.75-1.1607 3.3303-3.5536 3.3303-6.8571Zm-1.1428 0c0 1.3035-.2947 2.4553-.759 3.4285h-7.625c-.4642-.9732-.7589-2.125-.7589-3.4285h9.1429Zm-.509 10.8571h-8.125c.6608-1.7232 1.8483-2.9464 3.0358-3.4286h2.0535c1.1875.4822 2.375 1.7054 3.0357 3.4286Z" fill="#fff"/></svg>