<svg width="40" height="37" fill="none" xmlns="http://www.w3.org/2000/svg"><path fill-rule="evenodd" clip-rule="evenodd" d="M3.133 34.4587C1.41 34.4587 0 33.0488 0 31.3256V20.372h7.8863v-.0122h4.74c1.2219-.0313 2.2558-1.0965 2.2558-2.3498 0-1.2845-1.0653-2.3498-2.3498-2.3498H6.2661v.002H0v-3.135c0-1.7232 1.4099-3.1331 3.133-3.1331h9.3993c2.3811 0 4.4176.8459 6.0781 2.5378 1.6919 1.6605 2.5378 3.697 2.5378 6.0781 0 2.3498-.8146 4.3863-2.4751 6.0469-1.6605 1.6605-3.6657 2.5378-6.0155 2.5691H6.2661v4.6996c0 1.7232-1.4098 3.1331-3.133 3.1331Z" fill="#02BC6B"/><path fill-rule="evenodd" clip-rule="evenodd" d="M25.0975 5.7578c3.4614 3.3621 5.2056 7.5495 5.2056 12.3094 0 4.6801-1.6712 8.8635-5.0792 12.2362l-4.8387-4.5526c2.1195-2.0975 3.1598-4.6228 3.1598-7.6836 0-3.084-1.0716-5.6053-3.2419-7.7134l4.7944-4.596Z" fill="#02897A"/><path fill-rule="evenodd" clip-rule="evenodd" d="M32.5055 0c4.9856 4.9778 7.4944 11.1499 7.4944 18.2338 0 6.9733-2.4077 13.1415-7.3115 18.13l-4.6698-4.5629c3.6529-3.7159 5.4428-8.2228 5.4428-13.5671 0-5.398-1.8503-9.901-5.5827-13.6276L32.5055 0Z" fill="#035B81"/><path fill-rule="evenodd" clip-rule="evenodd" d="M0 26.6524h6.2661v4.6736c0 1.7232-1.4098 3.1331-3.133 3.1331S0 33.0492 0 31.326v-4.6736Z" fill="#028E37"/></svg>